<svg width="174" height="70" viewBox="0 0 174 70" fill="none" xmlns="http://www.w3.org/2000/svg">
<path d="M12.3047 48.3828L19.248 24.3008H24.1699L22.7051 32.6211L15.7031 56H11.4551L12.3047 48.3828ZM8.4668 24.3008L13.6816 48.4414L14.1504 56H9.25781L0.9375 24.3008H8.4668ZM30.6152 48.0898L35.7129 24.3008H43.2129L34.9512 56H30.0586L30.6152 48.0898ZM24.9316 24.3008L31.8164 48.1484L32.7246 56H28.4766L21.416 32.6211L19.9805 24.3008H24.9316ZM58.9863 24.3008V56H51.2227V24.3008H58.9863ZM50.6953 16.0098C50.6953 14.8574 51.0859 13.9004 51.8672 13.1387C52.668 12.377 53.7422 11.9961 55.0898 11.9961C56.4375 11.9961 57.502 12.377 58.2832 13.1387C59.084 13.9004 59.4844 14.8574 59.4844 16.0098C59.4844 17.1426 59.084 18.0898 58.2832 18.8516C57.502 19.6133 56.4375 19.9941 55.0898 19.9941C53.7422 19.9941 52.668 19.6133 51.8672 18.8516C51.0859 18.0898 50.6953 17.1426 50.6953 16.0098ZM76.957 31.0684V56H69.2227V24.3008H76.4883L76.957 31.0684ZM75.7266 39.0078H73.4414C73.4609 36.7031 73.7734 34.6133 74.3789 32.7383C74.9844 30.8633 75.834 29.252 76.9277 27.9043C78.041 26.5566 79.3594 25.5215 80.8828 24.7988C82.4062 24.0762 84.1055 23.7148 85.9805 23.7148C87.5039 23.7148 88.8809 23.9297 90.1113 24.3594C91.3418 24.7891 92.3965 25.4727 93.2754 26.4102C94.1738 27.3477 94.8574 28.5781 95.3262 30.1016C95.8145 31.6055 96.0586 33.4609 96.0586 35.668V56H88.2656V35.6094C88.2656 34.1641 88.0508 33.0215 87.6211 32.1816C87.2109 31.3418 86.6055 30.7461 85.8047 30.3945C85.0234 30.043 84.0566 29.8672 82.9043 29.8672C81.7129 29.8672 80.668 30.1113 79.7695 30.5996C78.8906 31.0684 78.1484 31.7227 77.543 32.5625C76.957 33.4023 76.5078 34.3691 76.1953 35.4629C75.8828 36.5566 75.7266 37.7383 75.7266 39.0078ZM124.898 49.2617V11H132.691V56H125.66L124.898 49.2617ZM104.537 40.5312V39.916C104.537 37.4941 104.811 35.2969 105.357 33.3242C105.924 31.332 106.744 29.623 107.818 28.1973C108.893 26.7715 110.191 25.668 111.715 24.8867C113.258 24.1055 115.006 23.7148 116.959 23.7148C118.854 23.7148 120.504 24.0957 121.91 24.8574C123.336 25.6191 124.547 26.7031 125.543 28.1094C126.559 29.5156 127.369 31.1855 127.975 33.1191C128.58 35.0332 129.02 37.1426 129.293 39.4473V41.1172C129.02 43.3633 128.58 45.4238 127.975 47.2988C127.369 49.1738 126.559 50.8145 125.543 52.2207C124.547 53.6074 123.336 54.6816 121.91 55.4434C120.484 56.2051 118.814 56.5859 116.9 56.5859C114.967 56.5859 113.229 56.1855 111.686 55.3848C110.162 54.584 108.863 53.4609 107.789 52.0156C106.734 50.5703 105.924 48.8711 105.357 46.918C104.811 44.9648 104.537 42.8359 104.537 40.5312ZM112.301 39.916V40.5312C112.301 41.8984 112.418 43.1777 112.652 44.3691C112.887 45.5605 113.268 46.6152 113.795 47.5332C114.322 48.4316 114.996 49.1348 115.816 49.6426C116.656 50.1504 117.672 50.4043 118.863 50.4043C120.387 50.4043 121.637 50.0723 122.613 49.4082C123.609 48.7246 124.381 47.7969 124.928 46.625C125.475 45.4336 125.826 44.0957 125.982 42.6113V38.0117C125.904 36.8398 125.699 35.7559 125.367 34.7598C125.055 33.7637 124.605 32.9043 124.02 32.1816C123.453 31.459 122.75 30.8926 121.91 30.4824C121.07 30.0723 120.074 29.8672 118.922 29.8672C117.73 29.8672 116.715 30.1309 115.875 30.6582C115.035 31.166 114.352 31.8789 113.824 32.7969C113.297 33.7148 112.906 34.7793 112.652 35.9902C112.418 37.2012 112.301 38.5098 112.301 39.916ZM141.316 40.4727V39.8574C141.316 37.5332 141.648 35.3945 142.312 33.4414C142.977 31.4688 143.943 29.7598 145.213 28.3145C146.482 26.8691 148.035 25.7461 149.871 24.9453C151.707 24.125 153.797 23.7148 156.141 23.7148C158.523 23.7148 160.633 24.125 162.469 24.9453C164.324 25.7461 165.887 26.8691 167.156 28.3145C168.426 29.7598 169.393 31.4688 170.057 33.4414C170.721 35.3945 171.053 37.5332 171.053 39.8574V40.4727C171.053 42.7773 170.721 44.916 170.057 46.8887C169.393 48.8418 168.426 50.5508 167.156 52.0156C165.887 53.4609 164.334 54.584 162.498 55.3848C160.662 56.1855 158.562 56.5859 156.199 56.5859C153.855 56.5859 151.756 56.1855 149.9 55.3848C148.045 54.584 146.482 53.4609 145.213 52.0156C143.943 50.5508 142.977 48.8418 142.312 46.8887C141.648 44.916 141.316 42.7773 141.316 40.4727ZM149.051 39.8574V40.4727C149.051 41.8594 149.188 43.1582 149.461 44.3691C149.734 45.5801 150.154 46.6445 150.721 47.5625C151.287 48.4805 152.02 49.2031 152.918 49.7305C153.836 50.2383 154.93 50.4922 156.199 50.4922C157.449 50.4922 158.523 50.2383 159.422 49.7305C160.32 49.2031 161.053 48.4805 161.619 47.5625C162.205 46.6445 162.635 45.5801 162.908 44.3691C163.182 43.1582 163.318 41.8594 163.318 40.4727V39.8574C163.318 38.4902 163.182 37.2109 162.908 36.0195C162.635 34.8086 162.205 33.7441 161.619 32.8262C161.053 31.8887 160.311 31.1562 159.393 30.6289C158.494 30.082 157.41 29.8086 156.141 29.8086C154.891 29.8086 153.816 30.082 152.918 30.6289C152.02 31.1562 151.287 31.8887 150.721 32.8262C150.154 33.7441 149.734 34.8086 149.461 36.0195C149.188 37.2109 149.051 38.4902 149.051 39.8574Z" fill="black"/>
<circle cx="55" cy="16" r="5" fill="#AE1071"/>
</svg>
